<svg width="1920" height="1080" viewBox="0 0 1920 1080" xmlns="http://www.w3.org/2000/svg">
  <defs>
    <!-- 海洋渐变背景 -->
    <linearGradient id="oceanGradient" x1="0%" y1="0%" x2="0%" y2="100%">
      <stop offset="0%" style="stop-color:#001122;stop-opacity:1" />
      <stop offset="30%" style="stop-color:#003366;stop-opacity:1" />
      <stop offset="60%" style="stop-color:#004488;stop-opacity:1" />
      <stop offset="100%" style="stop-color:#0066aa;stop-opacity:1" />
    </linearGradient>
    
    <!-- 波浪动画 -->
    <linearGradient id="waveGradient" x1="0%" y1="0%" x2="100%" y2="0%">
      <stop offset="0%" style="stop-color:#00aaff;stop-opacity:0.3" />
      <stop offset="50%" style="stop-color:#0088cc;stop-opacity:0.5" />
      <stop offset="100%" style="stop-color:#00aaff;stop-opacity:0.3" />
    </linearGradient>
    
    <!-- 气泡效果 -->
    <radialGradient id="bubbleGradient" cx="50%" cy="50%" r="50%">
      <stop offset="0%" style="stop-color:#ffffff;stop-opacity:0.8" />
      <stop offset="70%" style="stop-color:#00ccff;stop-opacity:0.4" />
      <stop offset="100%" style="stop-color:#0088cc;stop-opacity:0.1" />
    </radialGradient>
    
    <!-- 光线效果 -->
    <linearGradient id="lightRay" x1="0%" y1="0%" x2="100%" y2="100%">
      <stop offset="0%" style="stop-color:#ffffff;stop-opacity:0.1" />
      <stop offset="50%" style="stop-color:#00ffff;stop-opacity:0.3" />
      <stop offset="100%" style="stop-color:#0088cc;stop-opacity:0.1" />
    </linearGradient>
  </defs>
  
  <!-- 主背景 -->
  <rect width="100%" height="100%" fill="url(#oceanGradient)" />
  
  <!-- 海底地形 -->
  <path d="M0,800 Q480,750 960,780 T1920,820 L1920,1080 L0,1080 Z" fill="#002244" opacity="0.6" />
  <path d="M0,850 Q320,800 640,830 T1280,840 Q1600,820 1920,860 L1920,1080 L0,1080 Z" fill="#001133" opacity="0.8" />
  
  <!-- 波浪层 1 -->
  <path d="M0,600 Q240,580 480,600 T960,620 Q1200,600 1440,620 T1920,640 L1920,1080 L0,1080 Z" fill="url(#waveGradient)" opacity="0.3">
    <animateTransform attributeName="transform" type="translate" values="-100,0;100,0;-100,0" dur="20s" repeatCount="indefinite" />
  </path>
  
  <!-- 波浪层 2 -->
  <path d="M0,650 Q320,630 640,650 T1280,670 Q1600,650 1920,680 L1920,1080 L0,1080 Z" fill="url(#waveGradient)" opacity="0.2">
    <animateTransform attributeName="transform" type="translate" values="100,0;-100,0;100,0" dur="25s" repeatCount="indefinite" />
  </path>
  
  <!-- 光线效果 -->
  <polygon points="200,0 250,0 400,1080 350,1080" fill="url(#lightRay)" opacity="0.4">
    <animateTransform attributeName="transform" type="translate" values="0,0;50,0;0,0" dur="8s" repeatCount="indefinite" />
  </polygon>
  <polygon points="800,0 850,0 1000,1080 950,1080" fill="url(#lightRay)" opacity="0.3">
    <animateTransform attributeName="transform" type="translate" values="0,0;-30,0;0,0" dur="12s" repeatCount="indefinite" />
  </polygon>
  <polygon points="1400,0 1450,0 1600,1080 1550,1080" fill="url(#lightRay)" opacity="0.5">
    <animateTransform attributeName="transform" type="translate" values="0,0;40,0;0,0" dur="10s" repeatCount="indefinite" />
  </polygon>
  
  <!-- 气泡效果 -->
  <circle cx="300" cy="700" r="8" fill="url(#bubbleGradient)">
    <animateTransform attributeName="transform" type="translate" values="0,0;0,-50;0,0" dur="6s" repeatCount="indefinite" />
    <animate attributeName="opacity" values="0.3;0.8;0.3" dur="6s" repeatCount="indefinite" />
  </circle>
  <circle cx="600" cy="750" r="12" fill="url(#bubbleGradient)">
    <animateTransform attributeName="transform" type="translate" values="0,0;0,-80;0,0" dur="8s" repeatCount="indefinite" />
    <animate attributeName="opacity" values="0.2;0.7;0.2" dur="8s" repeatCount="indefinite" />
  </circle>
  <circle cx="1200" cy="680" r="6" fill="url(#bubbleGradient)">
    <animateTransform attributeName="transform" type="translate" values="0,0;0,-40;0,0" dur="5s" repeatCount="indefinite" />
    <animate attributeName="opacity" values="0.4;0.9;0.4" dur="5s" repeatCount="indefinite" />
  </circle>
  <circle cx="1500" cy="720" r="10" fill="url(#bubbleGradient)">
    <animateTransform attributeName="transform" type="translate" values="0,0;0,-60;0,0" dur="7s" repeatCount="indefinite" />
    <animate attributeName="opacity" values="0.3;0.6;0.3" dur="7s" repeatCount="indefinite" />
  </circle>
  
  <!-- 海洋生物轮廓 -->
  <g opacity="0.1">
    <!-- 鱼群 -->
    <ellipse cx="400" cy="500" rx="15" ry="8" fill="#00ccff">
      <animateTransform attributeName="transform" type="translate" values="0,0;100,20;0,0" dur="15s" repeatCount="indefinite" />
    </ellipse>
    <ellipse cx="420" cy="510" rx="12" ry="6" fill="#00aacc">
      <animateTransform attributeName="transform" type="translate" values="0,0;80,15;0,0" dur="15s" repeatCount="indefinite" />
    </ellipse>
    <ellipse cx="1100" cy="600" rx="18" ry="10" fill="#0088aa">
      <animateTransform attributeName="transform" type="translate" values="0,0;-120,-30;0,0" dur="20s" repeatCount="indefinite" />
    </ellipse>
  </g>
  
  <!-- 水面反光 -->
  <rect x="0" y="0" width="1920" height="200" fill="url(#lightRay)" opacity="0.1" />
</svg>